<svg width="1395.181396484375px" height="197.6px" xmlns="http://www.w3.org/2000/svg" viewBox="-447.5906982421875 -23.799999999999997 1395.181396484375 197.6" style="background: rgb(253, 253, 253);" preserveAspectRatio="xMidYMid"><defs><filter id="editing-extrusion" x="-100%" y="-100%" width="300%" height="300%"><feFlood result="color1" flood-color="#bbcedd"></feFlood><feConvolveMatrix order="8,8" divisor="1" kernelMatrix="1 0 0 0 0 0 0 0 0 1 0 0 0 0 0 0 0 0 1 0 0 0 0 0 0 0 0 1 0 0 0 0 0 0 0 0 1 0 0 0 0 0 0 0 0 1 0 0 0 0 0 0 0 0 1 0 0 0 0 0 0 0 0 1" in="SourceAlpha" result="extrude"></feConvolveMatrix><feComposite in="color1" in2="extrude" result="comp-extrude" operator="in"></feComposite><feOffset dx="4" dy="4" in="comp-extrude" result="offset-extrude"></feOffset><feMerge><feMergeNode in="offset-extrude"></feMergeNode><feMergeNode in="SourceGraphic"></feMergeNode></feMerge></filter></defs><g filter="url(#editing-extrusion)"><g transform="translate(-252.42997926473618, 127.13500499725342)"><path d="M52.86-59.36L52.86-59.36L52.86-59.36Q43.79-59.36 37.18-62.38L37.18-62.38L33.60-44.24L55.22-44.24L55.22-44.24Q55.22-38.30 52.25-34.55L52.25-34.55L52.25-34.55Q49.28-30.80 43.90-30.80L43.90-30.80L43.90-30.80Q38.08-30.80 32.70-32.93L32.70-32.93L32.70-32.93Q31.58-33.38 31.47-33.49L31.47-33.49L25.09 0L0.67 0L14.90-73.92L64.85-73.92L64.85-73.92Q64.85-67.09 61.66-63.22L61.66-63.22L61.66-63.22Q58.46-59.36 52.86-59.36ZM88.93-6.16L88.93-6.16L88.93-6.16Q85.46 2.24 74.37 2.24L74.37 2.24L74.37 2.24Q68.66 2.24 65.07-1.68L65.07-1.68L65.07-1.68Q62.05-5.15 62.05-8.62L62.05-8.62L62.05-8.62Q62.05-17.70 66.19-35.39L66.19-35.39L70.34-57.12L93.07-59.36L86.24-23.97L86.24-23.97Q84.34-15.68 84.34-12.77L84.34-12.77L84.34-12.77Q84.34-6.38 88.93-6.16ZM72.35-72.69L72.35-72.69L72.35-72.69Q72.35-77.06 75.99-79.41L75.99-79.41L75.99-79.41Q79.63-81.76 84.90-81.76L84.90-81.76L84.90-81.76Q90.16-81.76 93.35-79.41L93.35-79.41L93.35-79.41Q96.54-77.06 96.54-72.69L96.54-72.69L96.54-72.69Q96.54-68.32 93.02-66.08L93.02-66.08L93.02-66.08Q89.49-63.84 84.22-63.84L84.22-63.84L84.22-63.84Q78.96-63.84 75.66-66.08L75.66-66.08L75.66-66.08Q72.35-68.32 72.35-72.69ZM143.81-18.93L143.81-18.93L143.81-18.93Q146.61-17.02 146.61-12.82L146.61-12.82L146.61-12.82Q146.61-8.62 144.48-5.94L144.48-5.94L144.48-5.94Q142.35-3.25 138.88-1.46L138.88-1.46L138.88-1.46Q131.71 2.24 123.98 2.24L123.98 2.24L123.98 2.24Q116.26 2.24 111.72 0.56L111.72 0.56L111.72 0.56Q107.18-1.12 104.16-4.26L104.16-4.26L104.16-4.26Q98.22-10.19 98.22-21.06L98.22-21.06L98.22-21.06Q98.22-37.97 107.41-48.27L107.41-48.27L107.41-48.27Q117.26-59.36 134.40-59.36L134.40-59.36L134.40-59.36Q145.04-59.36 150.30-54.88L150.30-54.88L150.30-54.88Q154.22-51.52 154.22-46.03L154.22-46.03L154.22-46.03Q154.22-26.32 120.18-26.32L120.18-26.32L120.18-26.32Q119.73-23.41 119.73-20.94L119.73-20.94L119.73-20.94Q119.73-15.79 122.02-13.83L122.02-13.83L122.02-13.83Q124.32-11.87 128.58-11.87L128.58-11.87L128.58-11.87Q132.83-11.87 137.37-13.83L137.37-13.83L137.37-13.83Q141.90-15.79 143.81-18.93ZM120.96-31.14L120.96-31.14L120.96-31.14Q128.91-31.14 133.50-36.06L133.50-36.06L133.50-36.06Q138.10-40.77 138.10-48.27L138.10-48.27L138.10-48.27Q138.10-50.85 137.14-52.25L137.14-52.25L137.14-52.25Q136.19-53.65 134.29-53.65L134.29-53.65L134.29-53.65Q132.38-53.65 130.76-52.92L130.76-52.92L130.76-52.92Q129.14-52.19 127.46-49.73L127.46-49.73L127.46-49.73Q123.31-44.13 120.96-31.14ZM205.41 2.24L205.41 2.24L205.41 2.24Q191.86 2.24 191.86-8.29L191.86-8.29L191.86-8.29Q191.97-11.20 192.86-16.13L192.86-16.13L194.88-26.43L194.88-26.43Q197.90-40.99 197.90-44.24L197.90-44.24L197.90-44.24Q197.90-50.74 194.10-50.74L194.10-50.74L194.10-50.74Q187.71-50.74 184.35-34.05L184.35-34.05L177.74 0L155.23 2.24L166.88-57.23L185.25-59.36L183.46-48.38L183.46-48.38Q188.72-59.36 204.85-59.36L204.85-59.36L204.85-59.36Q212.69-59.36 215.99-56.06L215.99-56.06L215.99-56.06Q219.30-52.75 219.30-45.36L219.30-45.36L219.30-45.36Q219.30-38.42 215.71-22.18L215.71-22.18L215.71-22.18Q214.03-14.90 214.03-12.15L214.03-12.15L214.03-12.15Q214.03-9.41 215.54-7.84L215.54-7.84L215.54-7.84Q217.06-6.27 219.30-6.05L219.30-6.05L219.30-6.05Q218.18-2.24 214.31 0L214.31 0L214.31 0Q210.45 2.24 205.41 2.24ZM263.87-12.66L263.87-12.66L263.87-12.66Q258.05-6.61 247.41-6.61L247.41-6.61L247.41-6.61Q234.08-6.61 231.28-16.35L231.28-16.35L231.28-16.35Q230.38-19.26 230.38-22.51L230.38-22.51L230.38-22.51Q230.38-25.76 231.06-29.12L231.06-29.12L236.32-57.12L259.06-59.36L252.90-26.77L252.90-26.77Q252.67-25.31 252.34-23.74L252.34-23.74L252.34-23.74Q252.00-22.18 252.00-20.55L252.00-20.55L252.00-20.55Q252.00-18.93 252.56-17.86L252.56-17.86L252.56-17.86Q253.12-16.80 253.90-16.13L253.90-16.13L253.90-16.13Q255.25-15.23 257.66-15.23L257.66-15.23L257.66-15.23Q260.06-15.23 262.14-18.14L262.14-18.14L262.14-18.14Q264.21-21.06 265.22-26.10L265.22-26.10L271.38-57.12L293.44-59.36L285.04-15.34L285.04-15.34Q280.90 6.16 272.38 14.67L272.38 14.67L272.38 14.67Q268.02 19.04 262.36 20.78L262.36 20.78L262.36 20.78Q256.70 22.51 249.42 22.51L249.42 22.51L249.42 22.51Q237.66 22.51 230.94 18.82L230.94 18.82L230.94 18.82Q224.22 15.12 224.22 8.96L224.22 8.96L224.22 8.96Q224.22 4.37 227.70 1.74L227.70 1.74L227.70 1.74Q231.17-0.90 236.54-0.90L236.54-0.90L236.54-0.90Q241.25-0.90 244.83 1.12L244.83 1.12L244.83 1.12Q246.96 2.35 247.97 3.92L247.97 3.92L247.97 3.92Q245.39 6.16 245.39 9.86L245.39 9.86L245.39 9.86Q245.39 14.78 249.87 14.78L249.87 14.78L249.87 14.78Q257.26 14.78 261.52-2.24L261.52-2.24L261.52-2.24Q262.75-7.28 263.87-12.66ZM312.37 0.34L312.37 0.34L312.37 0.34Q308.78 2.24 303.86 2.24L303.86 2.24L303.86 2.24Q298.93 2.24 296.24-0.28L296.24-0.28L296.24-0.28Q293.55-2.80 293.55-7.67L293.55-7.67L293.55-7.67Q293.55-12.54 296.97-17.30L296.97-17.30L296.97-17.30Q300.38-22.06 305.48-24.75L305.48-24.75L305.48-24.75Q310.58-27.44 314.16-29.01L314.16-29.01L307.10-45.25L307.10-45.25Q305.20-49.39 301.62-49.39L301.62-49.39L300.72-49.28L300.38-49.28L300.38-49.28Q301.06-53.20 305.65-56.22L305.65-56.22L305.65-56.22Q310.24-59.36 315.50-59.36L315.50-59.36L315.50-59.36Q324.02-59.36 327.94-50.85L327.94-50.85L328.83-49.06L333.65-37.18L333.65-37.18Q336.67-38.53 337.96-41.05L337.96-41.05L337.96-41.05Q339.25-43.57 339.25-48.55L339.25-48.55L339.25-48.55Q339.25-53.54 336.56-56.67L336.56-56.67L336.56-56.67Q340.82-59.36 346.42-59.36L346.42-59.36L346.42-59.36Q356.50-59.36 356.50-49.62L356.50-49.62L356.50-49.62Q356.50-38.98 343.17-32.82L343.17-32.82L336.45-29.68L342.50-14.11L342.50-14.11Q344.29-9.41 347.54-7.39L347.54-7.39L347.54-7.39Q348.88-6.50 350.45-6.38L350.45-6.38L350.45-6.38Q347.09-0.90 339.81 1.57L339.81 1.57L339.81 1.57Q337.57 2.24 334.54 2.24L334.54 2.24L334.54 2.24Q331.52 2.24 328.05 0.17L328.05 0.17L328.05 0.17Q324.58-1.90 323.34-5.15L323.34-5.15L317.18-21.17L317.18-21.17Q310.91-18.37 310.91-8.18L310.91-8.18L310.91-8.18Q310.91-3.47 312.37 0.34ZM391.55-54.54L391.55-54.54L391.55-54.54Q387.74-57.46 387.74-63.67L387.74-63.67L387.74-63.67Q387.74-69.89 391.83-73.14L391.83-73.14L391.83-73.14Q395.92-76.38 402.98-76.38L402.98-76.38L402.98-76.38Q407.46-76.38 418.10-74.82L418.10-74.82L425.71-73.70L425.71-73.70Q429.52-73.25 433.50-73.25L433.50-73.25L433.50-73.25Q437.47-73.25 440.16-74.93L440.16-74.93L440.16-74.93Q444.19-71.34 444.19-66.19L444.19-66.19L444.19-66.19Q444.19-61.04 439.60-57.34L439.60-57.34L439.60-57.34Q434.90-53.42 428.85-53.42L428.85-53.42L428.85-53.42Q425.94-53.42 421.23-54.21L421.23-54.21L421.23-54.21Q415.74-36.96 415.74-24.98L415.74-24.98L415.74-24.98Q415.74-12.99 421.79-6.72L421.79-6.72L421.79-6.72Q418.99-1.68 414.85 0.28L414.85 0.28L414.85 0.28Q410.70 2.24 404.49 2.24L404.49 2.24L404.49 2.24Q398.27 2.24 394.41-1.18L394.41-1.18L394.41-1.18Q390.54-4.59 390.54-11.65L390.54-11.65L390.54-11.65Q390.54-19.82 395.02-33.26L395.02-33.26L395.02-33.26Q399.50-46.59 406.22-56.78L406.22-56.78L406.22-56.78Q402.98-57.12 399.62-57.12L399.62-57.12L399.62-57.12Q392.67-57.12 391.55-54.54ZM474.99-31.47L474.99-31.47L474.99-31.47Q479.02-38.64 479.02-45.92L479.02-45.92L479.02-45.92Q479.02-50.74 475.55-50.74L475.55-50.74L475.55-50.74Q472.86-50.74 470.06-46.14L470.06-46.14L470.06-46.14Q467.15-41.55 466.26-35.62L466.26-35.62L460.43 0L437.25 2.24L448.67-57.12L467.15-59.36L465.14-48.05L465.14-48.05Q470.62-59.36 482.94-59.36L482.94-59.36L482.94-59.36Q489.44-59.36 492.97-56L492.97-56L492.97-56Q496.50-52.64 496.50-45.75L496.50-45.75L496.50-45.75Q496.50-38.86 491.96-34.50L491.96-34.50L491.96-34.50Q487.42-30.13 479.70-30.13L479.70-30.13L479.70-30.13Q476.34-30.13 474.99-31.47ZM503.16-3.36L503.16-3.36L503.16-3.36Q500.53-6.27 499.35-10.86L499.35-10.86L499.35-10.86Q498.18-15.46 498.18-22.96L498.18-22.96L498.18-22.96Q498.18-30.46 500.75-37.30L500.75-37.30L500.75-37.30Q503.33-44.13 508.03-49.06L508.03-49.06L508.03-49.06Q517.66-59.36 533.57-59.36L533.57-59.36L533.57-59.36Q539.28-59.36 543.42-57.46L543.42-57.46L562.58-59.36L554.29-15.68L554.29-15.68Q553.95-14.34 553.95-11.87L553.95-11.87L553.95-11.87Q553.95-9.41 555.46-7.84L555.46-7.84L555.46-7.84Q556.98-6.27 559.22-6.05L559.22-6.05L559.22-6.05Q558.10-2.24 554.01 0L554.01 0L554.01 0Q549.92 2.24 545.33 2.24L545.33 2.24L545.33 2.24Q540.74 2.24 537.66 0.50L537.66 0.50L537.66 0.50Q534.58-1.23 533.68-4.14L533.68-4.14L533.68-4.14Q531.89-1.34 528.08 0.45L528.08 0.45L528.08 0.45Q524.27 2.24 519.18 2.24L519.18 2.24L519.18 2.24Q514.08 2.24 509.94 0.90L509.94 0.90L509.94 0.90Q505.79-0.45 503.16-3.36ZM526.79-48.83L526.79-48.83L526.79-48.83Q525.50-46.82 524.38-43.40L524.38-43.40L524.38-43.40Q523.26-39.98 521.42-30.86L521.42-30.86L521.42-30.86Q519.57-21.73 519.57-15.23L519.57-15.23L519.57-15.23Q519.57-8.74 520.58-6.83L520.58-6.83L520.58-6.83Q521.58-4.93 523.38-4.93L523.38-4.93L523.38-4.93Q526.96-4.93 529.59-8.34L529.59-8.34L529.59-8.34Q532.22-11.76 533.23-17.81L533.23-17.81L539.17-50.62L539.17-50.62Q536.82-52.64 534.07-52.64L534.07-52.64L534.07-52.64Q531.33-52.64 529.70-51.74L529.70-51.74L529.70-51.74Q528.08-50.85 526.79-48.83ZM616 2.24L616 2.24L616 2.24Q602.45 2.24 602.45-8.29L602.45-8.29L602.45-8.29Q602.56-11.20 603.46-16.13L603.46-16.13L605.47-26.43L605.47-26.43Q608.50-40.99 608.50-44.24L608.50-44.24L608.50-44.24Q608.50-50.74 604.69-50.74L604.69-50.74L604.69-50.74Q598.30-50.74 594.94-34.05L594.94-34.05L588.34 0L565.82 2.24L577.47-57.23L595.84-59.36L594.05-48.38L594.05-48.38Q599.31-59.36 615.44-59.36L615.44-59.36L615.44-59.36Q623.28-59.36 626.58-56.06L626.58-56.06L626.58-56.06Q629.89-52.75 629.89-45.36L629.89-45.36L629.89-45.36Q629.89-38.42 626.30-22.18L626.30-22.18L626.30-22.18Q624.62-14.90 624.62-12.15L624.62-12.15L624.62-12.15Q624.62-9.41 626.14-7.84L626.14-7.84L626.14-7.84Q627.65-6.27 629.89-6.05L629.89-6.05L629.89-6.05Q628.77-2.24 624.90 0L624.90 0L624.90 0Q621.04 2.24 616 2.24ZM672.34-39.31L672.34-39.31L672.34-39.31Q673.90-43.46 673.90-47.04L673.90-47.04L673.90-47.04Q673.90-53.65 668.53-53.65L668.53-53.65L668.53-53.65Q665.73-53.65 663.43-51.13L663.43-51.13L663.43-51.13Q661.14-48.61 661.14-45.47L661.14-45.47L661.14-45.47Q661.14-43.23 662.93-41.44L662.93-41.44L662.93-41.44Q665.50-38.98 672.11-34.94L672.11-34.94L672.11-34.94Q678.72-30.91 681.24-27.61L681.24-27.61L681.24-27.61Q683.76-24.30 683.76-19.77L683.76-19.77L683.76-19.77Q683.76-15.23 681.58-11.09L681.58-11.09L681.58-11.09Q679.39-6.94 675.47-4.03L675.47-4.03L675.47-4.03Q667.07 2.24 653.63 2.24L653.63 2.24L653.63 2.24Q646.35 2.24 640.75-1.57L640.75-1.57L640.75-1.57Q635.15-5.26 635.15-9.63L635.15-9.63L635.15-9.63Q635.15-14 638.34-16.58L638.34-16.58L638.34-16.58Q641.54-19.15 646.24-19.15L646.24-19.15L646.24-19.15Q650.94-19.15 653.86-17.36L653.86-17.36L653.86-17.36Q652.40-13.66 652.40-11.20L652.40-11.20L652.40-11.20Q652.40-3.81 658.67-3.81L658.67-3.81L658.67-3.81Q661.36-3.81 663.15-5.49L663.15-5.49L663.15-5.49Q664.94-7.17 664.94-10.08L664.94-10.08L664.94-10.08Q664.94-15.79 655.31-21.84L655.31-21.84L655.31-21.84Q647.47-26.99 645.68-29.01L645.68-29.01L645.68-29.01Q642.66-32.59 642.66-37.07L642.66-37.07L642.66-37.07Q642.66-41.55 644.78-45.81L644.78-45.81L644.78-45.81Q646.91-50.06 650.83-53.09L650.83-53.09L650.83-53.09Q659.01-59.36 673.23-59.36L673.23-59.36L673.23-59.36Q680.51-59.36 684.82-56.45L684.82-56.45L684.82-56.45Q689.14-53.54 689.14-48.61L689.14-48.61L689.14-48.61Q689.14-43.68 686.17-40.88L686.17-40.88L686.17-40.88Q683.20-38.08 677.82-38.08L677.82-38.08L677.82-38.08Q674.13-38.08 672.34-39.31ZM720.05-6.16L720.05-6.16L720.05-6.16Q716.58 2.24 705.49 2.24L705.49 2.24L705.49 2.24Q699.89 2.24 696.30-1.68L696.30-1.68L696.30-1.68Q693.39-4.93 693.39-8.62L693.39-8.62L693.39-8.62Q693.39-17.02 697.31-35.39L697.31-35.39L705.49-78.40L728.22-80.64L717.36-23.97L717.36-23.97Q715.46-15.68 715.46-12.77L715.46-12.77L715.46-12.77Q715.46-6.38 720.05-6.16ZM734.44-3.36L734.44-3.36L734.44-3.36Q731.81-6.27 730.63-10.86L730.63-10.86L730.63-10.86Q729.46-15.46 729.46-22.96L729.46-22.96L729.46-22.96Q729.46-30.46 732.03-37.30L732.03-37.30L732.03-37.30Q734.61-44.13 739.31-49.06L739.31-49.06L739.31-49.06Q748.94-59.36 764.85-59.36L764.85-59.36L764.85-59.36Q770.56-59.36 774.70-57.46L774.70-57.46L793.86-59.36L785.57-15.68L785.57-15.68Q785.23-14.34 785.23-11.87L785.23-11.87L785.23-11.87Q785.23-9.41 786.74-7.84L786.74-7.84L786.74-7.84Q788.26-6.27 790.50-6.05L790.50-6.05L790.50-6.05Q789.38-2.24 785.29 0L785.29 0L785.29 0Q781.20 2.24 776.61 2.24L776.61 2.24L776.61 2.24Q772.02 2.24 768.94 0.50L768.94 0.50L768.94 0.50Q765.86-1.23 764.96-4.14L764.96-4.14L764.96-4.14Q763.17-1.34 759.36 0.45L759.36 0.45L759.36 0.45Q755.55 2.24 750.46 2.24L750.46 2.24L750.46 2.24Q745.36 2.24 741.22 0.90L741.22 0.90L741.22 0.90Q737.07-0.45 734.44-3.36ZM758.07-48.83L758.07-48.83L758.07-48.83Q756.78-46.82 755.66-43.40L755.66-43.40L755.66-43.40Q754.54-39.98 752.70-30.86L752.70-30.86L752.70-30.86Q750.85-21.73 750.85-15.23L750.85-15.23L750.85-15.23Q750.85-8.74 751.86-6.83L751.86-6.83L751.86-6.83Q752.86-4.93 754.66-4.93L754.66-4.93L754.66-4.93Q758.24-4.93 760.87-8.34L760.87-8.34L760.87-8.34Q763.50-11.76 764.51-17.81L764.51-17.81L770.45-50.62L770.45-50.62Q768.10-52.64 765.35-52.64L765.35-52.64L765.35-52.64Q762.61-52.64 760.98-51.74L760.98-51.74L760.98-51.74Q759.36-50.85 758.07-48.83ZM801.70-11.20L801.70-11.20L801.70-11.20Q801.70-14.22 803.26-21.84L803.26-21.84L809.20-52.08L802.59-52.08L803.04-55.44L803.04-55.44Q816.48-59.47 829.47-69.33L829.47-69.33L834.85-69.33L832.16-57.12L840.90-57.12L839.89-52.08L831.26-52.08L825.55-21.84L825.55-21.84Q824.10-14.90 824.10-12.54L824.10-12.54L824.10-12.54Q824.10-7.17 828.80-6.05L828.80-6.05L828.80-6.05Q827.68-2.24 823.65 0L823.65 0L823.65 0Q819.62 2.24 813.90 2.24L813.90 2.24L813.90 2.24Q808.19 2.24 804.94-1.34L804.94-1.34L804.94-1.34Q801.70-4.93 801.70-11.20ZM867.22-6.16L867.22-6.16L867.22-6.16Q863.74 2.24 852.66 2.24L852.66 2.24L852.66 2.24Q846.94 2.24 843.36-1.68L843.36-1.68L843.36-1.68Q840.34-5.15 840.34-8.62L840.34-8.62L840.34-8.62Q840.34-17.70 844.48-35.39L844.48-35.39L848.62-57.12L871.36-59.36L864.53-23.97L864.53-23.97Q862.62-15.68 862.62-12.77L862.62-12.77L862.62-12.77Q862.62-6.38 867.22-6.16ZM850.64-72.69L850.64-72.69L850.64-72.69Q850.64-77.06 854.28-79.41L854.28-79.41L854.28-79.41Q857.92-81.76 863.18-81.76L863.18-81.76L863.18-81.76Q868.45-81.76 871.64-79.41L871.64-79.41L871.64-79.41Q874.83-77.06 874.83-72.69L874.83-72.69L874.83-72.69Q874.83-68.32 871.30-66.08L871.30-66.08L871.30-66.08Q867.78-63.84 862.51-63.84L862.51-63.84L862.51-63.84Q857.25-63.84 853.94-66.08L853.94-66.08L853.94-66.08Q850.64-68.32 850.64-72.69ZM901.15 2.24L901.15 2.24L901.15 2.24Q876.51 2.24 876.51-20.94L876.51-20.94L876.51-20.94Q876.51-37.41 885.58-48.05L885.58-48.05L885.58-48.05Q895.22-59.36 911.90-59.36L911.90-59.36L911.90-59.36Q924.00-59.36 930.16-53.76L930.16-53.76L930.16-53.76Q936.32-48.16 936.32-36.40L936.32-36.40L936.32-36.40Q936.32-18.48 926.69-8.06L926.69-8.06L926.69-8.06Q917.28 2.24 901.15 2.24ZM904.06-46.48L904.06-46.48L904.06-46.48Q902.72-43.46 901.66-38.92L901.66-38.92L901.66-38.92Q900.59-34.38 899.25-27.22L899.25-27.22L899.25-27.22Q897.90-20.05 897.90-11.20L897.90-11.20L897.90-11.20Q897.90-8.29 898.86-6.38L898.86-6.38L898.86-6.38Q899.81-4.48 902.38-4.48L902.38-4.48L902.38-4.48Q904.96-4.48 906.58-5.71L906.58-5.71L906.58-5.71Q908.21-6.94 909.44-9.86L909.44-9.86L909.44-9.86Q911.68-15.01 913.47-24.58L913.47-24.58L913.47-24.58Q915.26-34.16 915.43-38.30L915.43-38.30L915.43-38.30Q915.60-42.45 915.60-45.53L915.60-45.53L915.60-45.53Q915.60-48.61 914.70-50.62L914.70-50.62L914.70-50.62Q913.81-52.64 911.29-52.64L911.29-52.64L911.29-52.64Q908.77-52.64 907.09-51.07L907.09-51.07L907.09-51.07Q905.41-49.50 904.06-46.48ZM990.30 2.24L990.30 2.24L990.30 2.24Q976.75 2.24 976.75-8.29L976.75-8.29L976.75-8.29Q976.86-11.20 977.76-16.13L977.76-16.13L979.78-26.43L979.78-26.43Q982.80-40.99 982.80-44.24L982.80-44.24L982.80-44.24Q982.80-50.74 978.99-50.74L978.99-50.74L978.99-50.74Q972.61-50.74 969.25-34.05L969.25-34.05L962.64 0L940.13 2.24L951.78-57.23L970.14-59.36L968.35-48.38L968.35-48.38Q973.62-59.36 989.74-59.36L989.74-59.36L989.74-59.36Q997.58-59.36 1000.89-56.06L1000.89-56.06L1000.89-56.06Q1004.19-52.75 1004.19-45.36L1004.19-45.36L1004.19-45.36Q1004.19-38.42 1000.61-22.18L1000.61-22.18L1000.61-22.18Q998.93-14.90 998.93-12.15L998.93-12.15L998.93-12.15Q998.93-9.41 1000.44-7.84L1000.44-7.84L1000.44-7.84Q1001.95-6.27 1004.19-6.05L1004.19-6.05L1004.19-6.05Q1003.07-2.24 999.21 0L999.21 0L999.21 0Q995.34 2.24 990.30 2.24Z" fill="#85a2b6"></path></g></g><style>text {
  font-size: 64px;
  font-family: Arial Black;
  dominant-baseline: central;
  text-anchor: middle;
}</style></svg>